<svg xmlns="http://www.w3.org/2000/svg" width="600" height="130" fill="none"><path fill="#292929" d="M70.01 58.4 55.16 85.066H40.309L25.459 58.4V100H6.363V25.333H26.52L47.734 64.8 68.95 25.333h20.155V100H70.01zm45.125 41.6H94.45l28.11-74.667h21.216L171.886 100h-20.685l-4.773-13.334h-26.52zm9.547-27.2h16.972l-8.486-25.067zm93.874-47.467q11.987 0 18.14 6.293 6.258 6.188 6.258 18.24v25.6q0 12.054-6.258 18.347-6.153 6.186-18.14 6.187h-41.37V25.333zm5.304 24.533q0-9.6-9.547-9.6H196.28v44.8h18.033q9.547 0 9.547-9.6zM491.134 100H470.98l-25.459-44.8V100h-19.094V25.333h20.155l25.458 44.8v-44.8h19.094zm26.039 0h-20.685l28.111-74.667h21.215L573.924 100h-20.685l-4.773-13.334h-26.519zm9.547-27.2h16.972l-8.486-25.067zM576.043 84h19.094v16h-19.094z"/><path fill="#C5443E" d="M413.649 100h-20.155l-25.459-44.8V100h-19.094V25.334h20.155l25.459 44.8v-44.8h19.094z"/><path fill="#292929" d="M295.028 103.333c21.969 0 39.779-17.909 39.779-40s-17.81-40-39.779-40-39.779 17.909-39.779 40 17.81 40 39.779 40"/><path fill="#C5443E" d="M295.027 76.667c7.323 0 13.26-5.97 13.26-13.334S302.35 50 295.027 50s-13.259 5.97-13.259 13.333 5.936 13.334 13.259 13.334"/><path fill="#B2B2BD" d="M295.028 66.667a3.324 3.324 0 0 0 3.314-3.334A3.324 3.324 0 0 0 295.028 60a3.324 3.324 0 0 0-3.315 3.333 3.324 3.324 0 0 0 3.315 3.334"/></svg>