<svg width="100" height="100" viewBox="0 0 100 100" xmlns="http://www.w3.org/2000/svg">
  <symbol id="icon-arrow" viewBox="0 0 28 28" fill="none" xmlns="http://www.w3.org/2000/svg">
    <path d="M26 2.675V26M26 26H2.74766M26 26L2 2" stroke="currentColor" stroke-width="3"/>
  </symbol>




  <symbol id="icon-logo-photographer" viewBox="0 0 197 97" fill="none" xmlns="http://www.w3.org/2000/svg">
    <path d="M34.0828 97V6.09714L36.8537 8.86857H0V0H78.2795V8.86857H41.5643L44.1968 6.09714V97H34.0828ZM96.2756 97V0H104.727L149.062 75.66H144.629L188.549 0H197V97H187.163V15.3814H189.518L149.062 84.6671H144.213L103.48 15.3814H106.113V97H96.2756Z" fill="white"/>
  </symbol>


  <symbol id="icon-logo-vinyl" viewBox="0 0 600 130" fill="none" xmlns="http://www.w3.org/2000/svg">
    <path
      d="M70.0107 58.3997L55.1598 85.0663H40.309L25.4582 58.3997V99.9997H6.36426V25.333H26.519L47.7344 64.7997L68.9499 25.333H89.1046V99.9997H70.0107V58.3997ZM115.135 99.9997H94.4499L122.56 25.333H143.776L171.886 99.9997H151.201L146.428 86.6663H119.908L115.135 99.9997ZM124.682 72.7997H141.654L133.168 47.733L124.682 72.7997ZM218.556 25.333C226.547 25.333 232.594 27.4308 236.696 31.6263C240.868 35.7507 242.954 41.8307 242.954 49.8663V75.4663C242.954 83.502 240.868 89.6173 236.696 93.813C232.594 97.9373 226.547 99.9997 218.556 99.9997H177.186V25.333H218.556ZM223.86 49.8663C223.86 43.4663 220.678 40.2663 214.313 40.2663H196.28V85.0663H214.313C220.678 85.0663 223.86 81.8663 223.86 75.4663V49.8663ZM491.134 99.9997H470.98L445.521 55.1997V99.9997H426.427V25.333H446.582L472.04 70.133V25.333H491.134V99.9997ZM517.173 99.9997H496.488L524.599 25.333H545.814L573.924 99.9997H553.239L548.466 86.6663H521.947L517.173 99.9997ZM526.72 72.7997H543.692L535.206 47.733L526.72 72.7997ZM576.043 83.9997H595.137V99.9997H576.043V83.9997Z"
      fill="#292929"
    />
    <path
      d="M413.649 100H393.494L368.035 55.2002V100H348.941V25.3335H369.096L394.555 70.1335V25.3335H413.649V100Z"
      fill="#C5443E"
    />
    <path
      d="M295.028 103.333C316.997 103.333 334.807 85.4244 334.807 63.333C334.807 41.2416 316.997 23.333 295.028 23.333C273.059 23.333 255.249 41.2416 255.249 63.333C255.249 85.4244 273.059 103.333 295.028 103.333Z"
      fill="#292929"
    />
    <path
      d="M295.027 76.6667C302.35 76.6667 308.287 70.6971 308.287 63.3333C308.287 55.9695 302.35 50 295.027 50C287.704 50 281.768 55.9695 281.768 63.3333C281.768 70.6971 287.704 76.6667 295.027 76.6667Z"
      fill="#C5443E"
    />
    <path
      d="M295.028 66.6667C296.858 66.6667 298.342 65.1743 298.342 63.3333C298.342 61.4924 296.858 60 295.028 60C293.197 60 291.713 61.4924 291.713 63.3333C291.713 65.1743 293.197 66.6667 295.028 66.6667Z"
      fill="#B2B2BD"
    />
  </symbol>
</svg>
