<svg width="100" height="100" viewBox="0 0 100 100" xmlns="http://www.w3.org/2000/svg">
  <!-- <symbol id="icon-arrow" viewBox="0 0 28 28" fill="none" xmlns="http://www.w3.org/2000/svg">
    <path d="M26 2.675V26M26 26H2.74766M26 26L2 2" stroke="currentColor" stroke-width="3"/>
  </symbol> -->

  <symbol id="icon-arrow" width="30" height="30" viewBox="0 0 30 30" fill="none" xmlns="http://www.w3.org/2000/svg">
    <path d="M8.24987 25.1669L29.9995 3.41723L26.5824 0.00012207L4.83276 21.7498V3.41723L-0.000491858 3.41723L-0.000491858 30.0001L26.5824 30.0001L26.5824 25.1669H8.24987Z" fill="#2E4EEC"/>
  </symbol>


                <symbol id="icon-arrow-about" width="30" height="30" viewBox="0 0 30 30" fill="none" xmlns="http://www.w3.org/2000/svg">
              <g clip-path="url(#clip0_430_1975)">
              <path d="M8.24938 25.1669L29.999 3.41723L26.5819 0.00012207L4.83227 21.7498V3.41723L-0.000980139 3.41723L-0.000980139 30.0001L26.5819 30.0001L26.5819 25.1669H8.24938Z" fill="white"/>
              </g>
              <defs>
              <clipPath id="clip0_430_1975">
              <rect width="30" height="30" fill="white"/>
              </clipPath>
              </defs>
              </symbol>

                              <symbol id="icon-arrow-tennis" width="30" height="30" viewBox="0 0 30 30" fill="none" xmlns="http://www.w3.org/2000/svg">
              <g clip-path="url(#clip0_430_1975)">
              <path d="M8.24938 25.1669L29.999 3.41723L26.5819 0.00012207L4.83227 21.7498V3.41723L-0.000980139 3.41723L-0.000980139 30.0001L26.5819 30.0001L26.5819 25.1669H8.24938Z" fill="black"/>
              </g>
              <defs>
              <clipPath id="clip0_430_1975">
              <rect width="30" height="30" fill="black"/>
              </clipPath>
              </defs>
              </symbol>

              <symbol id="icon-arrow-work" width="30" height="30" viewBox="0 0 30 30" fill="none" xmlns="http://www.w3.org/2000/svg">
              <path d="M8.25036 25.1667L30 3.41711L26.5829 0L4.83325 21.7496V3.41711L0 3.41711L0 30L26.5829 30V25.1667H8.25036Z" fill="#2E4EEC"/>
              </symbol>

  <symbol id="icon-logo-photographer" viewBox="0 0 197 97" fill="none" xmlns="http://www.w3.org/2000/svg">
    <path d="M34.0828 97V6.09714L36.8537 8.86857H0V0H78.2795V8.86857H41.5643L44.1968 6.09714V97H34.0828ZM96.2756 97V0H104.727L149.062 75.66H144.629L188.549 0H197V97H187.163V15.3814H189.518L149.062 84.6671H144.213L103.48 15.3814H106.113V97H96.2756Z" fill="white"/>
  </symbol>


  <symbol id="icon-logo-vinyl" viewBox="0 0 600 130" fill="none" xmlns="http://www.w3.org/2000/svg">
    <path
      d="M70.0107 58.3997L55.1598 85.0663H40.309L25.4582 58.3997V99.9997H6.36426V25.333H26.519L47.7344 64.7997L68.9499 25.333H89.1046V99.9997H70.0107V58.3997ZM115.135 99.9997H94.4499L122.56 25.333H143.776L171.886 99.9997H151.201L146.428 86.6663H119.908L115.135 99.9997ZM124.682 72.7997H141.654L133.168 47.733L124.682 72.7997ZM218.556 25.333C226.547 25.333 232.594 27.4308 236.696 31.6263C240.868 35.7507 242.954 41.8307 242.954 49.8663V75.4663C242.954 83.502 240.868 89.6173 236.696 93.813C232.594 97.9373 226.547 99.9997 218.556 99.9997H177.186V25.333H218.556ZM223.86 49.8663C223.86 43.4663 220.678 40.2663 214.313 40.2663H196.28V85.0663H214.313C220.678 85.0663 223.86 81.8663 223.86 75.4663V49.8663ZM491.134 99.9997H470.98L445.521 55.1997V99.9997H426.427V25.333H446.582L472.04 70.133V25.333H491.134V99.9997ZM517.173 99.9997H496.488L524.599 25.333H545.814L573.924 99.9997H553.239L548.466 86.6663H521.947L517.173 99.9997ZM526.72 72.7997H543.692L535.206 47.733L526.72 72.7997ZM576.043 83.9997H595.137V99.9997H576.043V83.9997Z"
      fill="#292929"
    />
    <path
      d="M413.649 100H393.494L368.035 55.2002V100H348.941V25.3335H369.096L394.555 70.1335V25.3335H413.649V100Z"
      fill="#C5443E"
    />
    <path
      d="M295.028 103.333C316.997 103.333 334.807 85.4244 334.807 63.333C334.807 41.2416 316.997 23.333 295.028 23.333C273.059 23.333 255.249 41.2416 255.249 63.333C255.249 85.4244 273.059 103.333 295.028 103.333Z"
      fill="#292929"
    />
    <path
      d="M295.027 76.6667C302.35 76.6667 308.287 70.6971 308.287 63.3333C308.287 55.9695 302.35 50 295.027 50C287.704 50 281.768 55.9695 281.768 63.3333C281.768 70.6971 287.704 76.6667 295.027 76.6667Z"
      fill="#C5443E"
    />
    <path
      d="M295.028 66.6667C296.858 66.6667 298.342 65.1743 298.342 63.3333C298.342 61.4924 296.858 60 295.028 60C293.197 60 291.713 61.4924 291.713 63.3333C291.713 65.1743 293.197 66.6667 295.028 66.6667Z"
      fill="#B2B2BD"
    />
  </symbol>

  <symbol id="icon-logo-dental" viewBox="0 0 220 100" fill="none" xmlns="http://www.w3.org/2000/svg">
    <path d="M53.3923 100C45.706 100 38.6145 98.7637 32.1178 96.2912C25.621 93.8187 19.9478 90.3388 15.0981 85.8516C10.3399 81.2729 6.63401 75.9615 3.98041 69.9176C1.3268 63.8736 0 57.2344 0 50C0 42.7656 1.3268 36.1264 3.98041 30.0824C6.63401 24.0385 10.3399 18.7729 15.0981 14.2857C19.9478 9.70696 25.621 6.18132 32.1178 3.70879C38.6145 1.23626 45.706 0 53.3923 0C61.1702 0 68.2617 1.23626 74.6669 3.70879C81.1637 6.18132 86.7912 9.70696 91.5493 14.2857C96.3075 18.7729 100.013 24.0385 102.667 30.0824C105.412 36.1264 106.785 42.7656 106.785 50C106.785 57.2344 105.412 63.9194 102.667 70.0549C100.013 76.0989 96.3075 81.3645 91.5493 85.8516C86.7912 90.3388 81.1637 93.8187 74.6669 96.2912C68.2617 98.7637 61.1702 100 53.3923 100ZM53.3923 77.4725C57.0525 77.4725 60.4381 76.8315 63.5492 75.5494C66.7519 74.2674 69.497 72.4359 71.7846 70.0549C74.1637 67.5824 75.9937 64.652 77.2748 61.2637C78.6473 57.8755 79.3336 54.1209 79.3336 50C79.3336 45.7875 78.6473 42.033 77.2748 38.7363C75.9937 35.348 74.1637 32.4634 71.7846 30.0824C69.497 27.6099 66.7519 25.7326 63.5492 24.4506C60.4381 23.1685 57.0525 22.5275 53.3923 22.5275C49.7322 22.5275 46.3008 23.1685 43.0982 24.4506C39.9871 25.7326 37.242 27.6099 34.8629 30.0824C32.5753 32.4634 30.7452 35.348 29.3727 38.7363C28.0916 42.033 27.4511 45.7875 27.4511 50C27.4511 54.1209 28.0916 57.8755 29.3727 61.2637C30.7452 64.652 32.5753 67.5824 34.8629 70.0549C37.242 72.4359 39.9871 74.2674 43.0982 75.5494C46.3008 76.8315 49.7322 77.4725 53.3923 77.4725Z" fill="white"/>
    <path d="M153.669 99.3132C144.153 99.3132 136.741 96.978 131.434 92.3077C126.127 87.5458 123.473 80.4029 123.473 70.8791V7.00549H149.552V70.6044C149.552 73.2601 150.284 75.3663 151.748 76.9231C153.212 78.3883 155.087 79.1209 157.375 79.1209C160.486 79.1209 163.14 78.3425 165.336 76.7857L171.787 95.0549C169.591 96.5201 166.891 97.5733 163.689 98.2143C160.486 98.9469 157.146 99.3132 153.669 99.3132ZM112.63 45.8791V26.3736H166.571V45.8791H112.63Z" fill="white"/>
    <path d="M191.588 43.6355V3.25092H206.412V43.6355H191.588ZM178 30.4487V16.4377H220V30.4487H178Z" fill="white"/>
  </symbol>

</svg>
